<svg width="432" height="270" fill="none" xmlns="http://www.w3.org/2000/svg"><path d="M35 176c0-13.255 10.745-24 24-24h82c13.255 0 24 10.745 24 24v78c0 8.837-7.163 16-16 16H51c-8.837 0-16-7.163-16-16v-78z" fill="#193154"/><path d="M24 176c0-13.255 10.745-24 24-24h64c13.255 0 24 10.745 24 24v78c0 8.837-7.163 16-16 16H40c-8.837 0-16-7.163-16-16v-78z" fill="#515F7C"/><path d="M217.812 4h19.219c3.281 0 6.094 2.188 7.031 5.156L245.781 14H257.5c5.469 0 10 4.531 10 10v40c0 5.625-4.531 10-10 10h-60c-5.625 0-10-4.375-10-10V24c0-5.469 4.375-10 10-10h11.562l1.719-4.844c.938-2.969 3.75-5.156 7.031-5.156zm9.688 55c8.281 0 15-6.719 15-15 0-8.281-6.719-15-15-15-8.438 0-15 6.719-15 15 0 8.281 6.562 15 15 15z" fill="#FAB005"/><path d="M210.312 4h19.219c3.281 0 6.094 2.188 7.031 5.156L238.281 14H250c5.469 0 10 4.531 10 10v40c0 5.625-4.531 10-10 10h-60c-5.625 0-10-4.375-10-10V24c0-5.469 4.375-10 10-10h11.562l1.719-4.844c.938-2.969 3.75-5.156 7.031-5.156zM220 59c8.281 0 15-6.719 15-15 0-8.281-6.719-15-15-15-8.438 0-15 6.719-15 15 0 8.281 6.562 15 15 15z" fill="#FFD43B"/><path fill="#0CA678" d="M83 124h8v7h-8zM65.25 62.75h8v7h-8zM100 62.75h8v7h-8v-7z"/><path d="M51.5 85.844v-.781c0-10.938 7.813-20.313 18.594-22.032 7.031-1.25 14.375 1.094 19.531 6.25l1.875 1.72 1.719-1.72c5.156-5.156 12.5-7.5 19.531-6.25 10.781 1.72 18.75 11.094 18.75 22.032v.781c0 6.563-2.812 12.813-7.5 17.187l-28.281 26.407C94.625 130.531 93.063 131 91.5 131c-1.719 0-3.281-.469-4.375-1.562l-28.281-26.407C54.156 98.656 51.5 92.406 51.5 85.844z" fill="#0CA678"/><path d="M44 85.844v-.781c0-10.938 7.813-20.313 18.594-22.032 7.031-1.25 14.375 1.094 19.531 6.25L84 71.001l1.719-1.72c5.156-5.156 12.5-7.5 19.531-6.25C116.031 64.752 124 74.126 124 85.064v.781c0 6.563-2.812 12.813-7.5 17.187l-28.281 26.407C87.125 130.531 85.563 131 84 131c-1.719 0-3.281-.469-4.375-1.562l-28.281-26.407C46.656 98.656 44 92.406 44 85.844z" fill="#63E6BE"/><path d="M365.583 120.917h17.511c2.033 0 3.909 1.408 4.535 3.285.781 2.033.312 4.222-1.251 5.63l-40.026 35.031c-1.876 1.407-4.378 1.564-6.254.156-1.876-1.251-2.658-3.753-1.72-5.943l12.039-28.15h-17.511c-2.033 0-3.909-1.251-4.535-3.128-.781-2.033-.312-4.222 1.251-5.63l40.026-35.03c1.876-1.408 4.378-1.565 6.254-.157 1.876 1.25 2.658 3.753 1.72 5.943l-12.039 27.993z" fill="#E03131"/><path fill="#E03131" d="M336 159h8v7h-8zM366 86h7.25v7.25H366V86z"/><path d="M358.583 120.917h17.511c2.033 0 3.909 1.408 4.535 3.285.781 2.033.312 4.222-1.251 5.63l-40.026 35.031c-1.876 1.407-4.378 1.564-6.254.156-1.876-1.251-2.658-3.753-1.72-5.943l12.039-28.15h-17.511c-2.033 0-3.909-1.251-4.535-3.128-.781-2.033-.312-4.222 1.251-5.63l40.026-35.03c1.876-1.408 4.378-1.565 6.254-.157 1.876 1.25 2.658 3.753 1.72 5.943l-12.039 27.993z" fill="#FF8787"/><path d="M165 125c0-13.255 10.745-24 24-24h82c13.255 0 24 10.745 24 24v129c0 8.837-7.163 16-16 16h-98c-8.837 0-16-7.163-16-16V125z" fill="#193154"/><path d="M154 125c0-13.255 10.745-24 24-24h64c13.255 0 24 10.745 24 24v129c0 8.837-7.163 16-16 16h-80c-8.837 0-16-7.163-16-16V125z" fill="#515F7C"/><path d="M291 206c0-13.255 10.745-24 24-24h82c13.255 0 24 10.745 24 24v48c0 8.837-7.163 16-16 16h-98c-8.837 0-16-7.163-16-16v-48z" fill="#193154"/><path d="M280 206c0-13.255 10.745-24 24-24h64c13.255 0 24 10.745 24 24v48c0 8.837-7.163 16-16 16h-80c-8.837 0-16-7.163-16-16v-48z" fill="#515F7C"/></svg>